<?xml version="1.0" standalone="no"?>
<!DOCTYPE svg PUBLIC "-//W3C//DTD SVG 20010904//EN"
 "http://www.w3.org/TR/2001/REC-SVG-20010904/DTD/svg10.dtd">
<svg version="1.0" xmlns="http://www.w3.org/2000/svg"
 width="209.000000pt" height="174.000000pt" viewBox="0 0 209.000000 174.000000"
 preserveAspectRatio="xMidYMid meet">

<g transform="translate(0.000000,174.000000) scale(0.100000,-0.100000)"
fill="#2d6afe" stroke="none">
<path d="M1682 1724 c-18 -9 -39 -29 -47 -44 -13 -26 -19 -27 -107 -33 -512
-33 -1209 -495 -1437 -953 -69 -139 -90 -284 -55 -386 31 -92 128 -168 254
-199 75 -18 256 -16 363 5 160 31 483 152 529 198 10 10 18 15 18 11 0 -5 4
-3 8 3 4 6 39 27 77 47 180 94 305 254 356 457 30 117 23 292 -15 400 -36 101
-96 199 -166 271 -34 35 -54 62 -47 65 7 2 53 10 102 18 81 12 91 12 100 -3 6
-8 24 -30 41 -48 26 -27 40 -33 73 -33 47 0 95 21 105 45 7 20 31 9 88 -43 60
-55 81 -103 86 -203 6 -117 -21 -206 -108 -359 -41 -73 -9 -33 41 51 21 36 53
103 70 150 27 70 32 99 33 174 1 132 -34 203 -134 267 -33 20 -49 39 -60 70
-27 73 -102 105 -168 72z m-271 -204 c48 -39 122 -137 161 -213 65 -129 87
-322 53 -464 -16 -69 -62 -177 -95 -223 -20 -28 -26 -30 -86 -30 -60 0 -69 -3
-107 -34 -67 -54 -137 -93 -209 -116 -122 -39 -112 -22 60 105 l163 120 -98 3
-98 3 -27 -33 c-15 -18 -60 -77 -102 -131 l-75 -98 -98 130 -98 130 -105 0
-104 1 169 -125 c172 -127 181 -141 74 -109 -78 23 -157 66 -211 113 l-47 42
-83 -3 -83 -3 85 -85 c98 -98 200 -158 326 -190 94 -24 241 -26 333 -5 35 9
66 14 68 12 7 -7 -140 -50 -257 -74 -143 -30 -344 -41 -421 -23 -133 31 -233
107 -264 201 -13 38 -16 73 -13 135 4 75 9 93 51 178 129 260 420 528 741 682
112 54 315 132 345 133 7 1 30 -13 52 -29z"/>
<path d="M772 1157 c-42 -45 -89 -121 -108 -179 -9 -27 -14 -51 -13 -52 2 -2
16 -6 30 -9 23 -6 30 -1 54 36 15 23 61 74 101 113 l73 70 -53 26 -53 27 -31
-32z"/>
<path d="M1052 1165 c-29 -13 -52 -27 -52 -31 0 -4 28 -33 63 -65 35 -32 79
-80 98 -108 29 -43 38 -49 59 -44 14 3 27 8 29 10 12 10 -38 123 -81 184 -26
37 -51 70 -56 73 -5 3 -32 -6 -60 -19z"/>
<path d="M892 1058 c-29 -22 -72 -67 -97 -99 l-45 -57 48 -12 c26 -6 72 -22
102 -35 43 -18 59 -21 75 -12 11 6 55 23 98 37 l79 27 -49 59 c-50 60 -134
134 -151 134 -5 0 -32 -19 -60 -42z"/>
<path d="M493 883 c-30 -6 -41 -63 -22 -118 14 -40 15 -40 69 -43 l55 -3 -3
81 c-3 67 -6 80 -20 80 -9 0 -26 2 -37 4 -11 2 -30 2 -42 -1z"/>
<path d="M1343 883 l-33 -4 0 -80 0 -79 49 0 c32 0 53 5 62 16 15 18 24 114
12 130 -10 14 -49 21 -90 17z"/>
<path d="M640 868 c0 -7 -3 -31 -6 -53 l-5 -40 25 45 c17 32 21 47 12 52 -17
11 -26 10 -26 -4z"/>
<path d="M1234 872 c-9 -5 -5 -20 12 -52 l23 -45 1 37 c0 58 -11 77 -36 60z"/>
<path d="M693 793 l-31 -68 52 -3 c47 -3 58 1 119 42 l67 45 -54 20 c-29 11
-68 22 -88 26 l-35 7 -30 -69z"/>
<path d="M1075 835 c-38 -14 -72 -25 -74 -25 -2 0 27 -20 65 -45 59 -38 76
-45 122 -45 28 0 52 2 52 4 0 2 -13 34 -30 70 -20 46 -35 66 -47 66 -10 0 -49
-12 -88 -25z"/>
<path d="M783 1695 c-84 -23 -167 -60 -230 -103 -109 -74 -219 -210 -263 -326
l-10 -28 24 19 c13 10 61 49 107 87 148 121 355 249 527 326 l87 40 -95 -1
c-52 0 -118 -7 -147 -14z"/>
<path d="M973 1652 c-142 -62 -333 -174 -470 -276 -118 -87 -253 -213 -253
-236 0 -8 30 15 68 51 184 180 426 338 685 450 60 26 111 50 114 53 19 19 -47
0 -144 -42z"/>
<path d="M1105 1649 c-185 -67 -414 -195 -595 -332 -116 -88 -270 -234 -270
-255 0 -9 35 19 82 65 219 211 535 411 812 511 43 16 72 31 65 34 -8 3 -50 -7
-94 -23z"/>
</g>
</svg>
